<?xml version="1.0" standalone="no"?><!DOCTYPE svg PUBLIC "-//W3C//DTD SVG 1.1//EN" "http://www.w3.org/Graphics/SVG/1.1/DTD/svg11.dtd"><svg t="1718810516360" class="icon" viewBox="0 0 1024 1024" version="1.1" xmlns="http://www.w3.org/2000/svg" p-id="5459" xmlns:xlink="http://www.w3.org/1999/xlink" width="128" height="128"><path d="M887.466667 216.177778H505.173333l-104.675555-111.502222H143.36c-50.062222 0-93.297778 40.96-93.297778 93.297777v628.053334c0 50.062222 40.96 93.297778 93.297778 93.297777H887.466667c50.062222 0 93.297778-40.96 93.297777-93.297777V309.475556c0-52.337778-43.235556-93.297778-93.297777-93.297778z m-193.422223 402.773333h-143.36v143.36c0 18.204444-15.928889 34.133333-34.133333 34.133333s-34.133333-15.928889-34.133333-34.133333v-143.36h-143.36c-18.204444 0-34.133333-15.928889-34.133334-34.133333s15.928889-34.133333 34.133334-34.133334h143.36v-143.36c0-18.204444 15.928889-34.133333 34.133333-34.133333s34.133333 15.928889 34.133333 34.133333v143.36h143.36c18.204444 0 34.133333 15.928889 34.133334 34.133334s-15.928889 34.133333-34.133334 34.133333z" fill="" p-id="5460"></path></svg>